<svg width="28.000000" height="28.000000" viewBox="0 0 28 28" fill="none" xmlns="http://www.w3.org/2000/svg" xmlns:xlink="http://www.w3.org/1999/xlink">
	<desc>
			Created with Pixso.
	</desc>
	<defs>
		<clipPath id="clip281_15246">
			<rect id="icon-facebook" rx="0.000000" width="27.000000" height="27.000000" transform="translate(0.500000 0.500000)" fill="white" fill-opacity="0"/>
		</clipPath>
	</defs>
	<rect id="icon-facebook" rx="0.000000" width="27.000000" height="27.000000" transform="translate(0.500000 0.500000)" fill="#FFFFFF" fill-opacity="0"/>
	<g clip-path="url(#clip281_15246)">
		<path id="Vector" d="M25.66 14C25.66 7.55 20.43 2.33 14 2.33C7.55 2.33 2.33 7.55 2.33 14C2.33 19.64 6.34 24.34 11.66 25.43L11.66 17.5L9.33 17.5L9.33 14L11.66 14L11.66 11.08C11.66 8.83 13.49 7 15.75 7L18.66 7L18.66 10.5L16.33 10.5C15.69 10.5 15.16 11.02 15.16 11.66L15.16 14L18.66 14L18.66 17.5L15.16 17.5L15.16 25.6C21.05 25.02 25.66 20.05 25.66 14Z" fill="#FFFFFF" fill-opacity="1.000000" fill-rule="nonzero"/>
	</g>
</svg>
