<svg width="24.000000" height="24.000000" viewBox="0 0 24 24" fill="none" xmlns="http://www.w3.org/2000/svg" xmlns:xlink="http://www.w3.org/1999/xlink">
	<desc>
			Created with Pixso.
	</desc>
	<defs>
		<clipPath id="clip281_15308">
			<rect id="icon-price" rx="0.000000" width="23.000000" height="23.000000" transform="translate(0.500000 0.500000)" fill="white" fill-opacity="0"/>
		</clipPath>
	</defs>
	<rect id="icon-price" rx="0.000000" width="23.000000" height="23.000000" transform="translate(0.500000 0.500000)" fill="#FFFFFF" fill-opacity="0"/>
	<g clip-path="url(#clip281_15308)">
		<path id="Vector" d="M11.25 7.84C10.31 8.1 9.75 8.82 9.75 9.49C9.75 10.17 10.31 10.89 11.25 11.15L11.25 7.84ZM12.75 12.84L12.75 16.15C13.68 15.89 14.25 15.17 14.25 14.49C14.25 13.82 13.68 13.1 12.75 12.84Z" fill="#FF8D3C" fill-opacity="1.000000" fill-rule="nonzero"/>
		<path id="Vector" d="M22 12C22 17.52 17.52 22 12 22C6.47 22 2 17.52 2 12C2 6.47 6.47 2 12 2C17.52 2 22 6.47 22 12ZM12 5.25C12.19 5.25 12.38 5.32 12.53 5.46C12.67 5.61 12.75 5.8 12.75 6L12.75 6.31C14.37 6.6 15.75 7.83 15.75 9.5C15.75 9.69 15.67 9.88 15.53 10.03C15.38 10.17 15.19 10.25 15 10.25C14.8 10.25 14.61 10.17 14.46 10.03C14.32 9.88 14.25 9.69 14.25 9.5C14.25 8.82 13.68 8.1 12.75 7.84L12.75 11.31C14.37 11.6 15.75 12.83 15.75 14.5C15.75 16.16 14.37 17.39 12.75 17.68L12.75 18C12.75 18.19 12.67 18.38 12.53 18.53C12.38 18.67 12.19 18.75 12 18.75C11.8 18.75 11.61 18.67 11.46 18.53C11.32 18.38 11.25 18.19 11.25 18L11.25 17.68C9.62 17.39 8.25 16.16 8.25 14.5C8.25 14.3 8.32 14.11 8.46 13.96C8.61 13.82 8.8 13.75 9 13.75C9.19 13.75 9.38 13.82 9.53 13.96C9.67 14.11 9.75 14.3 9.75 14.5C9.75 15.17 10.31 15.89 11.25 16.15L11.25 12.68C9.62 12.39 8.25 11.16 8.25 9.5C8.25 7.83 9.62 6.6 11.25 6.31L11.25 6C11.25 5.8 11.32 5.61 11.46 5.46C11.61 5.32 11.8 5.25 12 5.25Z" fill="#FF8D3C" fill-opacity="1.000000" fill-rule="evenodd"/>
	</g>
</svg>
