<svg width="24.000000" height="24.000000" viewBox="0 0 24 24" fill="none" xmlns="http://www.w3.org/2000/svg" xmlns:xlink="http://www.w3.org/1999/xlink">
	<desc>
			Created with Pixso.
	</desc>
	<defs>
		<clipPath id="clip252_1260">
			<rect id="icon-email" rx="0.000000" width="23.000000" height="23.000000" transform="translate(0.500000 0.500000)" fill="white" fill-opacity="0"/>
		</clipPath>
	</defs>
	<rect id="icon-email" rx="0.000000" width="23.000000" height="23.000000" transform="translate(0.500000 0.500000)" fill="#FFFFFF" fill-opacity="0"/>
	<g clip-path="url(#clip252_1260)">
		<path id="Vector" d="M20 4L4 4C2.89 4 2 4.89 2 6L2 18C2 19.1 2.89 20 4 20L20 20C21.1 20 22 19.1 22 18L22 6C22 4.89 21.1 4 20 4ZM19.6 8.25L12.52 12.66C12.21 12.87 11.79 12.87 11.47 12.66L4.39 8.25C4.29 8.19 4.21 8.11 4.14 8.02C4.07 7.93 4.02 7.83 3.99 7.71C3.96 7.6 3.95 7.49 3.97 7.37C3.99 7.26 4.03 7.15 4.09 7.05C4.15 6.96 4.23 6.87 4.33 6.81C4.42 6.74 4.53 6.69 4.64 6.67C4.75 6.65 4.87 6.65 4.98 6.67C5.09 6.69 5.2 6.74 5.29 6.81L12 11L18.7 6.81C18.79 6.74 18.9 6.69 19.01 6.67C19.12 6.65 19.24 6.65 19.35 6.67C19.46 6.69 19.57 6.74 19.66 6.81C19.76 6.87 19.84 6.96 19.9 7.05C19.96 7.15 20 7.26 20.02 7.37C20.04 7.49 20.03 7.6 20 7.71C19.97 7.83 19.92 7.93 19.85 8.02C19.78 8.11 19.7 8.19 19.6 8.25Z" fill="#000000" fill-opacity="1.000000" fill-rule="nonzero"/>
	</g>
</svg>
