<svg width="24.000000" height="24.000000" viewBox="0 0 24 24" fill="none" xmlns="http://www.w3.org/2000/svg" xmlns:xlink="http://www.w3.org/1999/xlink">
	<desc>
			Created with Pixso.
	</desc>
	<defs>
		<clipPath id="clip281_15303">
			<rect id="icon-date" rx="0.000000" width="23.000000" height="23.000000" transform="translate(0.500000 0.500000)" fill="white" fill-opacity="0"/>
		</clipPath>
	</defs>
	<rect id="icon-date" rx="0.000000" width="23.000000" height="23.000000" transform="translate(0.500000 0.500000)" fill="#FFFFFF" fill-opacity="0"/>
	<g clip-path="url(#clip281_15303)">
		<path id="Vector" d="M7.75 2.5C7.75 2.3 7.67 2.11 7.53 1.96C7.38 1.82 7.19 1.75 7 1.75C6.8 1.75 6.61 1.82 6.46 1.96C6.32 2.11 6.25 2.3 6.25 2.5L6.25 4.07C4.81 4.19 3.86 4.47 3.17 5.17C2.47 5.86 2.19 6.81 2.07 8.25L21.92 8.25C21.8 6.81 21.52 5.86 20.82 5.17C20.13 4.47 19.18 4.19 17.75 4.07L17.75 2.5C17.75 2.3 17.67 2.11 17.53 1.96C17.38 1.82 17.19 1.75 17 1.75C16.8 1.75 16.61 1.82 16.46 1.96C16.32 2.11 16.25 2.3 16.25 2.5L16.25 4.01C15.58 4 14.83 4 14 4L10 4C9.16 4 8.41 4 7.75 4.01L7.75 2.5Z" fill="#FF8D3C" fill-opacity="1.000000" fill-rule="nonzero"/>
		<path id="Vector" d="M2 12C2 11.16 2 10.41 2.01 9.75L21.98 9.75C22 10.41 22 11.16 22 12L22 14C22 17.77 22 19.65 20.82 20.82C19.65 21.99 17.77 22 14 22L10 22C6.22 22 4.34 22 3.17 20.82C2 19.65 2 17.77 2 14L2 12ZM17 14C17.26 14 17.51 13.89 17.7 13.7C17.89 13.51 18 13.26 18 13C18 12.73 17.89 12.48 17.7 12.29C17.51 12.1 17.26 12 17 12C16.73 12 16.48 12.1 16.29 12.29C16.1 12.48 16 12.73 16 13C16 13.26 16.1 13.51 16.29 13.7C16.48 13.89 16.73 14 17 14ZM17 18C17.26 18 17.51 17.89 17.7 17.7C17.89 17.51 18 17.26 18 17C18 16.73 17.89 16.48 17.7 16.29C17.51 16.1 17.26 16 17 16C16.73 16 16.48 16.1 16.29 16.29C16.1 16.48 16 16.73 16 17C16 17.26 16.1 17.51 16.29 17.7C16.48 17.89 16.73 18 17 18ZM13 13C13 13.26 12.89 13.51 12.7 13.7C12.51 13.89 12.26 14 12 14C11.73 14 11.48 13.89 11.29 13.7C11.1 13.51 11 13.26 11 13C11 12.73 11.1 12.48 11.29 12.29C11.48 12.1 11.73 12 12 12C12.26 12 12.51 12.1 12.7 12.29C12.89 12.48 13 12.73 13 13ZM13 17C13 17.26 12.89 17.51 12.7 17.7C12.51 17.89 12.26 18 12 18C11.73 18 11.48 17.89 11.29 17.7C11.1 17.51 11 17.26 11 17C11 16.73 11.1 16.48 11.29 16.29C11.48 16.1 11.73 16 12 16C12.26 16 12.51 16.1 12.7 16.29C12.89 16.48 13 16.73 13 17ZM7 14C7.26 14 7.51 13.89 7.7 13.7C7.89 13.51 8 13.26 8 13C8 12.73 7.89 12.48 7.7 12.29C7.51 12.1 7.26 12 7 12C6.73 12 6.48 12.1 6.29 12.29C6.1 12.48 6 12.73 6 13C6 13.26 6.1 13.51 6.29 13.7C6.48 13.89 6.73 14 7 14ZM7 18C7.26 18 7.51 17.89 7.7 17.7C7.89 17.51 8 17.26 8 17C8 16.73 7.89 16.48 7.7 16.29C7.51 16.1 7.26 16 7 16C6.73 16 6.48 16.1 6.29 16.29C6.1 16.48 6 16.73 6 17C6 17.26 6.1 17.51 6.29 17.7C6.48 17.89 6.73 18 7 18Z" fill="#FF8D3C" fill-opacity="1.000000" fill-rule="evenodd"/>
	</g>
</svg>
