<svg width="24.000000" height="24.000000" viewBox="0 0 24 24" fill="none" xmlns="http://www.w3.org/2000/svg" xmlns:xlink="http://www.w3.org/1999/xlink">
	<desc>
			Created with Pixso.
	</desc>
	<defs>
		<clipPath id="clip252_11285">
			<rect id="ion:time" rx="0.000000" width="23.000000" height="23.000000" transform="translate(0.500000 0.500000)" fill="white" fill-opacity="0"/>
		</clipPath>
	</defs>
	<rect id="ion:time" rx="0.000000" width="23.000000" height="23.000000" transform="translate(0.500000 0.500000)" fill="#FFFFFF" fill-opacity="0"/>
	<g clip-path="url(#clip252_11285)">
		<path id="Vector" d="M12 2.25C6.61 2.25 2.25 6.61 2.25 12C2.25 17.38 6.61 21.75 12 21.75C17.38 21.75 21.75 17.38 21.75 12C21.75 6.61 17.38 2.25 12 2.25ZM16.5 13.5L12 13.5C11.8 13.5 11.61 13.42 11.46 13.28C11.32 13.13 11.25 12.94 11.25 12.75L11.25 6C11.25 5.8 11.32 5.61 11.46 5.46C11.61 5.32 11.8 5.25 12 5.25C12.19 5.25 12.38 5.32 12.53 5.46C12.67 5.61 12.75 5.8 12.75 6L12.75 12L16.5 12C16.69 12 16.88 12.07 17.03 12.21C17.17 12.36 17.25 12.55 17.25 12.75C17.25 12.94 17.17 13.13 17.03 13.28C16.88 13.42 16.69 13.5 16.5 13.5Z" fill="#FF8D3C" fill-opacity="1.000000" fill-rule="nonzero"/>
	</g>
</svg>
