<svg width="32.000000" height="32.000000" viewBox="0 0 32 32" fill="none" xmlns="http://www.w3.org/2000/svg" xmlns:xlink="http://www.w3.org/1999/xlink">
	<desc>
			Created with Pixso.
	</desc>
	<defs>
		<clipPath id="clip252_1265">
			<rect id="icon-instagram" rx="0.000000" width="31.000000" height="31.000000" transform="translate(0.500000 0.500000)" fill="white" fill-opacity="0"/>
		</clipPath>
	</defs>
	<rect id="icon-instagram" rx="0.000000" width="31.000000" height="31.000000" transform="translate(0.500000 0.500000)" fill="#FFFFFF" fill-opacity="0"/>
	<g clip-path="url(#clip252_1265)">
		<path id="Vector" d="M17.37 2.66C18.87 2.67 19.63 2.67 20.28 2.69L20.54 2.7C20.84 2.71 21.14 2.73 21.49 2.74C22.91 2.81 23.88 3.03 24.73 3.36C25.61 3.7 26.35 4.16 27.09 4.9C27.77 5.57 28.29 6.37 28.63 7.26C28.96 8.11 29.18 9.08 29.25 10.5C29.26 10.85 29.28 11.15 29.29 11.45L29.3 11.71C29.32 12.36 29.32 13.12 29.33 14.62L29.33 15.62L29.33 17.37C29.33 18.34 29.32 19.31 29.3 20.28L29.29 20.54C29.28 20.84 29.27 21.14 29.25 21.49C29.18 22.91 28.96 23.88 28.63 24.73C28.29 25.62 27.77 26.42 27.09 27.09C26.42 27.77 25.62 28.29 24.73 28.63C23.88 28.96 22.91 29.18 21.49 29.25L20.54 29.29L20.28 29.3C19.63 29.31 18.87 29.32 17.37 29.33L16.37 29.33L14.63 29.33C13.65 29.33 12.68 29.32 11.71 29.3L11.45 29.29C11.13 29.28 10.82 29.26 10.5 29.25C9.08 29.18 8.11 28.96 7.26 28.63C6.37 28.29 5.57 27.77 4.9 27.09C4.22 26.42 3.7 25.62 3.36 24.73C3.03 23.88 2.81 22.91 2.74 21.49L2.7 20.54L2.7 20.28C2.67 19.31 2.66 18.34 2.66 17.37L2.66 14.62C2.66 13.65 2.67 12.68 2.69 11.71L2.7 11.45C2.71 11.15 2.72 10.85 2.74 10.5C2.81 9.08 3.03 8.11 3.36 7.26C3.7 6.37 4.22 5.56 4.9 4.9C5.57 4.22 6.37 3.7 7.26 3.36C8.11 3.03 9.08 2.81 10.5 2.74C10.85 2.73 11.15 2.71 11.45 2.7L11.71 2.69C12.68 2.67 13.65 2.66 14.62 2.66L17.37 2.66ZM16 9.33C14.23 9.33 12.53 10.03 11.28 11.28C10.03 12.53 9.33 14.23 9.33 15.99C9.33 17.76 10.03 19.46 11.28 20.71C12.53 21.96 14.23 22.66 16 22.66C17.76 22.66 19.46 21.96 20.71 20.71C21.96 19.46 22.66 17.76 22.66 15.99C22.66 14.23 21.96 12.53 20.71 11.28C19.46 10.03 17.76 9.33 16 9.33ZM16 11.99C16.52 11.99 17.04 12.1 17.53 12.3C18.01 12.5 18.45 12.79 18.82 13.17C19.2 13.54 19.49 13.98 19.69 14.46C19.89 14.95 20 15.47 20 15.99C20 16.52 19.89 17.04 19.69 17.53C19.49 18.01 19.2 18.45 18.82 18.82C18.45 19.19 18.01 19.49 17.53 19.69C17.04 19.89 16.52 19.99 16 19.99C14.94 19.99 13.92 19.57 13.17 18.82C12.42 18.07 12 17.06 12 15.99C12 14.93 12.42 13.92 13.17 13.17C13.92 12.42 14.94 11.99 16 11.99L16 11.99ZM23 7.33C22.55 7.33 22.13 7.5 21.82 7.82C21.51 8.13 21.33 8.55 21.33 8.99C21.33 9.44 21.51 9.86 21.82 10.17C22.13 10.49 22.55 10.66 23 10.66C23.44 10.66 23.86 10.49 24.18 10.17C24.49 9.86 24.66 9.44 24.66 8.99C24.66 8.55 24.49 8.13 24.18 7.82C23.86 7.5 23.44 7.33 23 7.33Z" fill="#000000" fill-opacity="1.000000" fill-rule="nonzero"/>
	</g>
</svg>
