<svg width="32.000000" height="32.000000" viewBox="0 0 32 32" fill="none" xmlns="http://www.w3.org/2000/svg" xmlns:xlink="http://www.w3.org/1999/xlink">
	<desc>
			Created with Pixso.
	</desc>
	<defs>
		<clipPath id="clip252_1263">
			<rect id="icon-facebook" rx="0.000000" width="31.000000" height="31.000000" transform="translate(0.500000 0.500000)" fill="white" fill-opacity="0"/>
		</clipPath>
	</defs>
	<rect id="icon-facebook" rx="0.000000" width="31.000000" height="31.000000" transform="translate(0.500000 0.500000)" fill="#FFFFFF" fill-opacity="0"/>
	<g clip-path="url(#clip252_1263)">
		<path id="Vector" d="M29.33 15.99C29.33 8.63 23.35 2.66 16 2.66C8.63 2.66 2.66 8.63 2.66 15.99C2.66 22.45 7.25 27.82 13.33 29.06L13.33 19.99L10.66 19.99L10.66 15.99L13.33 15.99L13.33 12.66C13.33 10.09 15.42 7.99 18 7.99L21.33 7.99L21.33 11.99L18.66 11.99C17.93 11.99 17.33 12.59 17.33 13.33L17.33 15.99L21.33 15.99L21.33 19.99L17.33 19.99L17.33 29.26C24.06 28.59 29.33 22.91 29.33 15.99Z" fill="#000000" fill-opacity="1.000000" fill-rule="nonzero"/>
	</g>
</svg>
