<svg width="28.000000" height="28.000000" viewBox="0 0 28 28" fill="none" xmlns="http://www.w3.org/2000/svg" xmlns:xlink="http://www.w3.org/1999/xlink">
	<desc>
			Created with Pixso.
	</desc>
	<defs>
		<clipPath id="clip281_15248">
			<rect id="icon-instagram" rx="0.000000" width="27.000000" height="27.000000" transform="translate(0.500000 0.500000)" fill="white" fill-opacity="0"/>
		</clipPath>
	</defs>
	<rect id="icon-instagram" rx="0.000000" width="27.000000" height="27.000000" transform="translate(0.500000 0.500000)" fill="#FFFFFF" fill-opacity="0"/>
	<g clip-path="url(#clip281_15248)">
		<path id="Vector" d="M15.19 2.33C16.51 2.33 17.17 2.34 17.75 2.36L17.97 2.36C18.24 2.37 18.49 2.38 18.81 2.4C20.05 2.46 20.89 2.65 21.64 2.94C22.41 3.24 23.06 3.64 23.7 4.29C24.3 4.87 24.76 5.57 25.05 6.35C25.34 7.1 25.53 7.94 25.59 9.19C25.61 9.5 25.62 9.75 25.63 10.02L25.63 10.24C25.65 10.82 25.66 11.48 25.66 12.8L25.66 13.67L25.66 15.19C25.66 16.05 25.66 16.9 25.63 17.75L25.63 17.97C25.62 18.24 25.61 18.49 25.59 18.8C25.53 20.05 25.34 20.89 25.05 21.64C24.76 22.42 24.3 23.12 23.7 23.7C23.12 24.3 22.42 24.76 21.64 25.05C20.89 25.34 20.05 25.53 18.81 25.59L17.97 25.63L17.75 25.63C17.17 25.65 16.51 25.66 15.19 25.66L14.32 25.66L12.8 25.66C11.95 25.66 11.09 25.66 10.24 25.63L10.02 25.63C9.74 25.62 9.46 25.61 9.19 25.59C7.94 25.53 7.1 25.34 6.35 25.05C5.58 24.76 4.87 24.3 4.29 23.7C3.69 23.12 3.23 22.42 2.94 21.64C2.65 20.89 2.46 20.05 2.4 18.8L2.36 17.97L2.36 17.75C2.34 16.9 2.33 16.05 2.33 15.19L2.33 12.8C2.33 11.94 2.33 11.09 2.35 10.24L2.36 10.02C2.37 9.75 2.38 9.5 2.4 9.19C2.46 7.94 2.65 7.1 2.94 6.35C3.23 5.57 3.69 4.87 4.29 4.29C4.87 3.69 5.58 3.23 6.35 2.94C7.1 2.65 7.94 2.46 9.19 2.4C9.5 2.38 9.76 2.37 10.02 2.36L10.24 2.36C11.09 2.34 11.94 2.33 12.8 2.33L15.19 2.33ZM14 8.16C12.45 8.16 10.96 8.78 9.87 9.87C8.78 10.96 8.16 12.45 8.16 14C8.16 15.54 8.78 17.03 9.87 18.12C10.96 19.21 12.45 19.83 14 19.83C15.54 19.83 17.03 19.21 18.12 18.12C19.21 17.03 19.83 15.54 19.83 14C19.83 12.45 19.21 10.96 18.12 9.87C17.03 8.78 15.54 8.16 14 8.16ZM14 10.5C14.45 10.49 14.91 10.59 15.33 10.76C15.76 10.94 16.15 11.19 16.47 11.52C16.8 11.84 17.05 12.23 17.23 12.65C17.4 13.08 17.5 13.53 17.5 13.99C17.5 14.45 17.41 14.91 17.23 15.33C17.05 15.76 16.8 16.14 16.47 16.47C16.15 16.79 15.76 17.05 15.34 17.23C14.91 17.4 14.46 17.49 14 17.5C13.07 17.5 12.18 17.13 11.52 16.47C10.87 15.81 10.5 14.92 10.5 14C10.5 13.07 10.87 12.18 11.52 11.52C12.18 10.86 13.07 10.5 14 10.5L14 10.5ZM20.12 6.41C19.73 6.41 19.36 6.57 19.09 6.84C18.82 7.11 18.66 7.48 18.66 7.87C18.66 8.26 18.82 8.63 19.09 8.9C19.36 9.17 19.73 9.33 20.12 9.33C20.51 9.33 20.88 9.17 21.15 8.9C21.43 8.63 21.58 8.26 21.58 7.87C21.58 7.48 21.43 7.11 21.15 6.84C20.88 6.57 20.51 6.41 20.12 6.41Z" fill="#FFFFFF" fill-opacity="1.000000" fill-rule="nonzero"/>
	</g>
</svg>
