<svg width="24.000000" height="24.000000" viewBox="0 0 24 24" fill="none" xmlns="http://www.w3.org/2000/svg" xmlns:xlink="http://www.w3.org/1999/xlink">
	<desc>
			Created with Pixso.
	</desc>
	<defs>
		<clipPath id="clip252_1256">
			<rect id="icon-location" rx="0.000000" width="23.000000" height="23.000000" transform="translate(0.500000 0.500000)" fill="white" fill-opacity="0"/>
		</clipPath>
	</defs>
	<rect id="icon-location" rx="0.000000" width="23.000000" height="23.000000" transform="translate(0.500000 0.500000)" fill="#FFFFFF" fill-opacity="0"/>
	<g clip-path="url(#clip252_1256)">
		<path id="Vector" d="M12 2C7.58 2 4 5.64 4 10.14C4 14.6 6.55 19.81 10.53 21.67C10.99 21.88 11.49 21.99 12 21.99C12.5 21.99 13 21.88 13.46 21.67C17.44 19.81 20 14.6 20 10.14C20 5.64 16.41 2 12 2ZM9 8.75C9 9.77 10.16 10.85 11.04 11.52C11.46 11.84 11.67 12 12 12C12.32 12 12.53 11.84 12.95 11.52C13.83 10.85 15 9.77 15 8.75C15 7.02 13.35 6.37 12 7.71C10.64 6.37 9 7.02 9 8.75L9 8.75Z" fill="#000000" fill-opacity="1.000000" fill-rule="evenodd"/>
	</g>
</svg>
